<svg xmlns="http://www.w3.org/2000/svg" width="480" height="300" viewBox="0 0 480 300" role="img" aria-labelledby="title"><title id="title">Minh họa bật Developer mode trong Chrome</title><rect width="480" height="300" rx="16" fill="#f4f0ff"/><g font-family="Arial, sans-serif" fill="#302b42"><rect x="22" y="24" width="436" height="248" rx="12" fill="#fff" stroke="#ded6ef"/><path d="M34 24H446Q458 24 458 36V64H22V36Q22 24 34 24" fill="#eae4f7"/><circle cx="40" cy="43" r="4" fill="#bfaedb"/><circle cx="54" cy="43" r="4" fill="#bfaedb"/><circle cx="68" cy="43" r="4" fill="#bfaedb"/><text x="90" y="48" font-size="13">chrome://extensions</text><text x="43" y="96" font-size="19" font-weight="700">Tiện ích</text><rect x="211" y="72" width="227" height="42" rx="9" fill="#f0e9ff" stroke="#a187e5"/><text x="225" y="98" font-size="14">Developer mode</text><rect x="376" y="84" width="46" height="22" rx="11" fill="#6648e1"/><circle cx="410" cy="95" r="8" fill="#fff"/><rect x="45" y="131" width="146" height="35" rx="7" fill="#fff" stroke="#c7b7f5"/><text x="65" y="154" font-size="14" fill="#5135c8">Load unpacked</text><path d="M396 167v-40m-7 8 7-8 7 8" stroke="#6648e1" stroke-width="3" fill="none"/><text x="71" y="214" font-size="16" font-weight="700">Bật công tắc ở góc phải</text><text x="71" y="239" font-size="13" fill="#625c73">Chế độ dành cho nhà phát triển</text></g></svg>
